<svg xmlns="http://www.w3.org/2000/svg" width="1048" height="307" viewBox="0 0 1048 307" fill="none">
<path fill-rule="evenodd" clip-rule="evenodd" d="M470.59 104.172H446.898V115.321C446.898 123.334 442.543 129.431 433.484 129.431H429.129V152.6H444.459V189.705C444.459 206.951 455.434 217.577 473.378 217.577C481.739 217.577 486.095 215.661 487.14 215.138V193.189C485.572 193.537 482.959 194.06 480.172 194.06C474.423 194.06 470.59 192.144 470.59 185.002V152.6H487.488V129.431H470.59V104.172ZM525.465 162.356H560.132C559.784 155.736 555.254 147.723 542.711 147.723C531.562 147.723 525.987 155.91 525.465 162.356ZM562.049 184.827L584.173 191.099C579.992 206.08 566.23 218.622 544.28 218.622C520.413 218.622 499.16 201.551 499.16 172.459C499.16 144.587 519.891 126.818 542.364 126.818C569.191 126.818 585.741 143.367 585.741 171.24C585.741 174.898 585.393 178.905 585.218 179.427H524.943C525.465 189.182 534.35 196.15 544.628 196.15C554.21 196.15 559.61 191.621 562.049 184.827ZM657.862 129.432C656.12 128.909 653.506 128.561 650.893 128.561C643.925 128.561 632.95 131.348 628.421 141.103V129.432H602.812V216.01H629.292V178.208C629.292 160.962 638.873 154.691 649.5 154.691C652.113 154.691 654.9 154.865 657.862 155.562V129.432ZM699.499 216.009V166.188C699.499 158.349 704.551 151.207 713.784 151.207C723.365 151.207 727.721 157.652 727.721 165.839V216.009H753.852V166.014C753.852 158.349 758.904 151.207 768.311 151.207C777.718 151.207 782.073 157.652 782.073 165.839V216.009H807.682V159.917C807.682 136.399 792.003 126.818 775.628 126.818C763.956 126.818 755.594 130.651 748.8 140.406C744.444 131.87 735.56 126.818 723.191 126.818C713.784 126.818 702.635 131.696 698.28 139.361V129.431H673.02V216.009H699.499ZM856.456 216.01V129.432H829.977V216.01H856.456ZM827.715 102.953C827.715 111.489 834.684 118.457 843.045 118.457C851.756 118.457 858.724 111.489 858.724 102.953C858.724 94.4173 851.756 87.4492 843.045 87.4492C834.684 87.4492 827.715 94.4173 827.715 102.953ZM935.549 216.01H960.984C960.809 214.616 960.113 208.345 960.113 200.506V129.432H933.633V178.731C933.633 187.441 928.058 193.538 919.174 193.538C909.767 193.538 905.237 186.918 905.237 178.556V129.432H878.758V184.131C878.758 202.596 890.604 217.926 911.683 217.926C920.393 217.926 930.323 214.79 934.853 207.3C934.853 209.564 935.201 214.442 935.549 216.01ZM976.313 191.447C977.01 201.028 985.721 218.623 1012.9 218.623C1036.07 218.623 1047.39 204.164 1047.39 189.357C1047.39 176.64 1038.68 165.84 1020.74 162.181L1009.24 159.917C1005.41 159.22 1002.44 157.13 1002.44 153.471C1002.44 148.942 1006.8 145.981 1011.85 145.981C1019.87 145.981 1023.52 150.858 1024.22 156.607L1046.17 152.6C1045.3 142.497 1036.59 126.819 1011.5 126.819C992.166 126.819 978.23 139.709 978.23 155.562C978.23 167.756 985.546 178.208 1004.01 182.215L1013.94 184.479C1020.39 185.873 1022.48 188.486 1022.48 191.621C1022.48 195.454 1019.17 199.112 1012.37 199.112C1003.32 199.112 999.134 193.363 998.786 187.441L976.313 191.447Z" fill="black"/>
<path fill-rule="evenodd" clip-rule="evenodd" d="M266.386 263.173C317.314 263.173 358.727 221.761 358.727 170.835C358.727 145.48 347.938 120.815 329.511 103.464C329.114 54.3876 289.083 14.6035 239.912 14.6035C225.632 14.6035 211.728 17.9676 199.153 24.4059C182.606 8.77822 160.742 0 137.679 0C89.5692 0 50.211 38.0863 48.164 85.6984C18.9994 101.995 0.613281 132.912 0.613281 166.728C0.613281 217.906 42.2305 259.523 93.4092 259.523C95.833 259.523 98.2585 259.428 100.675 259.24C117.772 288.001 149.033 306.072 182.862 306.072C215.218 306.072 245.053 289.815 262.652 263.097C263.898 263.148 265.144 263.173 266.386 263.173ZM182.862 281.705C155.454 281.705 130.236 265.715 118.486 240.9L114.511 232.504L105.362 234.115C101.439 234.806 97.4193 235.155 93.4092 235.155C55.6887 235.155 24.9813 204.448 24.9813 166.728C24.9813 139.805 40.7937 115.363 65.3524 104.301L72.907 100.899L72.5191 92.6223C72.472 91.6171 72.4483 90.6012 72.4483 89.597C72.4483 53.64 101.721 24.3672 137.679 24.3672C157.033 24.3672 175.169 32.8204 187.63 47.6418L194.649 55.99L203.72 49.9352C214.483 42.7517 226.96 38.9706 239.912 38.9706C275.871 38.9706 305.146 68.244 305.146 104.201C305.146 105.498 305.106 106.808 305.027 108.096L304.647 114.304L309.453 118.253C325.037 131.06 334.359 150.741 334.359 170.835C334.359 208.303 303.856 238.806 266.386 238.806C263.492 238.806 260.559 238.618 257.665 238.247L249.399 237.187L245.414 244.506C232.903 267.489 209.003 281.705 182.862 281.705ZM229.15 184.222L229.39 184.12C232.556 182.757 233.689 181.56 233.689 178.259V174.111C233.689 170.463 231.587 168.115 228.161 168.115H227.969L227.28 168.267C219.615 170.963 212.077 172.328 204.878 172.328C197.708 172.328 190.635 170.973 183.854 168.299L183.649 168.219L182.882 168.115C179.457 168.115 177.355 170.463 177.355 174.111V178.259C177.355 181.365 178.526 182.781 181.258 183.957C181.407 184.02 181.482 184.052 181.556 184.083C181.631 184.115 181.706 184.146 181.855 184.208C189.269 187.378 197.027 188.991 204.89 188.991C212.728 188.991 220.875 187.388 229.15 184.222ZM123.488 150.127C123.488 146.783 125.223 144.941 127.549 144.453L149.948 138.573L127.496 132.68C125.168 132.071 123.488 130.233 123.488 127.018V119.957C123.488 116.872 125.341 115.543 127.46 115.543C128.145 115.543 128.856 115.692 129.565 115.959L169.542 128.892C172.578 129.904 174.249 132.342 174.249 135.684V141.461C174.249 144.802 172.58 147.242 169.539 148.255L129.479 161.214C128.802 161.414 128.198 161.512 127.611 161.512C125.101 161.512 123.488 159.708 123.488 157.081V150.127Z" fill="black"/>
</svg>